{"glyphs":{"0":{"ha":939,"x_min":50,"x_max":889,"o":"m 469 -18 l 469 -18 q 245 40 340 -18 q 100 203 151 97 q 50 455 50 309 l 50 455 q 100 709 50 602 q 245 873 151 815 q 469 930 339 930 l 469 930 q 694 873 600 930 q 839 709 788 815 q 889 455 889 602 l 889 455 q 838 203 889 309 q 693 40 787 97 q 469 -18 600 -18 z m 469 199 l 469 199 q 581 457 581 199 l 581 457 q 469 715 581 715 l 469 715 q 357 457 357 715 l 357 457 q 469 199 357 199 z "},"1":{"ha":659,"x_min":54,"x_max":623,"o":"m 623 0 l 67 0 l 67 217 l 196 217 l 196 617 l 54 617 l 54 816 l 518 930 l 518 217 l 623 217 l 623 0 z "},"2":{"ha":857,"x_min":44,"x_max":827,"o":"m 827 0 l 66 0 l 66 193 q 372 375 264 271 q 479 594 479 479 l 479 594 q 452 697 479 659 q 371 736 425 736 l 371 736 q 285 698 315 736 q 256 601 256 661 l 256 601 q 264 540 256 568 q 291 478 273 512 l 291 478 l 118 410 q 64 498 85 443 q 44 614 44 553 l 44 614 q 95 787 44 717 q 234 894 146 858 q 429 930 321 930 l 429 930 q 625 895 541 930 q 755 791 709 859 q 802 625 802 722 l 802 625 q 716 404 802 505 q 458 234 630 302 l 458 234 l 824 234 l 827 0 z "},"3":{"ha":871,"x_min":64,"x_max":827,"o":"m 388 -19 l 388 -19 q 267 -9 328 -19 q 152 17 205 0 q 64 57 99 35 l 64 57 l 64 260 l 83 269 q 189 214 126 236 q 340 193 252 193 l 340 193 q 456 215 408 193 q 505 290 505 237 l 505 290 q 457 367 505 345 q 345 389 409 389 l 345 389 q 290 386 321 389 q 231 376 260 383 l 231 376 l 212 384 l 212 488 l 469 683 l 64 683 l 64 917 l 790 917 l 790 730 l 544 545 q 751 462 675 528 q 827 284 827 397 l 827 284 q 714 63 827 145 q 388 -19 602 -19 z "},"4":{"ha":912,"x_min":31,"x_max":897,"o":"m 736 0 l 427 0 l 427 210 l 31 210 l 31 413 l 441 917 l 736 917 l 736 427 l 897 427 l 897 210 l 736 210 l 736 0 z m 427 673 l 230 429 l 427 428 l 427 673 z "},"5":{"ha":871,"x_min":64,"x_max":826,"o":"m 387 -19 l 387 -19 q 266 -9 328 -19 q 151 17 204 0 q 64 57 98 35 l 64 57 l 64 254 l 82 262 q 189 214 125 235 q 340 193 252 193 l 340 193 q 456 215 408 193 q 504 290 504 237 l 504 290 q 455 367 504 345 q 333 389 407 389 l 333 389 q 214 377 275 389 q 96 343 152 366 l 96 343 l 77 351 l 118 917 l 776 917 l 776 683 l 304 683 l 295 583 q 421 594 357 594 l 421 594 q 718 514 610 594 q 826 290 826 433 l 826 290 q 714 63 826 146 q 387 -19 602 -19 z "},"6":{"ha":920,"x_min":50,"x_max":882,"o":"m 498 -18 l 498 -18 q 257 39 357 -18 q 103 201 157 96 q 50 453 50 307 l 50 453 q 113 716 50 610 q 283 877 176 823 q 521 930 390 930 l 521 930 q 700 900 622 930 q 823 810 778 869 q 867 669 867 752 l 867 669 q 867 637 867 652 q 863 608 866 623 l 863 608 l 654 615 l 654 640 q 622 720 654 694 q 538 746 589 746 l 538 746 q 410 688 461 746 q 359 506 359 631 l 359 506 q 360 481 359 492 l 360 481 q 458 549 399 526 q 583 572 517 572 l 583 572 q 741 537 673 572 q 845 436 808 501 q 882 283 882 371 l 882 283 q 832 125 882 193 q 695 20 782 57 q 498 -18 608 -18 z m 488 168 l 488 168 q 567 200 536 168 q 597 284 597 233 l 597 284 q 567 368 597 336 q 488 399 536 399 l 488 399 q 410 367 441 399 q 378 284 378 336 l 378 284 q 409 200 378 233 q 488 168 440 168 z "},"7":{"ha":847,"x_min":34,"x_max":829,"o":"m 477 0 l 90 0 l 451 696 l 234 696 l 217 541 l 34 541 l 34 917 l 829 917 l 829 724 l 477 0 z "},"8":{"ha":939,"x_min":44,"x_max":895,"o":"m 469 -19 l 469 -19 q 156 55 268 -19 q 44 254 44 128 l 44 254 q 81 382 44 330 q 188 466 119 435 l 188 466 q 85 657 85 530 l 85 657 q 132 802 85 741 q 266 897 179 863 q 469 930 352 930 l 469 930 q 673 897 587 930 q 807 802 760 863 q 854 657 854 741 l 854 657 q 751 466 854 530 l 751 466 q 857 382 820 435 q 895 254 895 330 l 895 254 q 783 55 895 128 q 469 -19 671 -19 z m 469 528 l 469 528 q 544 557 515 528 q 572 636 572 587 l 572 636 q 544 715 572 685 q 469 745 515 745 l 469 745 q 395 715 423 745 q 366 636 366 685 l 366 636 q 395 557 366 587 q 469 528 423 528 z m 469 167 l 469 167 q 569 196 532 167 q 606 275 606 226 l 606 275 q 569 354 606 324 q 469 384 531 384 l 469 384 q 370 354 408 384 q 332 275 332 324 l 332 275 q 370 196 332 226 q 469 167 408 167 z "},"9":{"ha":920,"x_min":38,"x_max":871,"o":"m 422 930 l 422 930 q 664 874 564 930 q 817 712 764 817 q 871 460 871 606 l 871 460 q 807 196 871 302 q 637 36 744 90 q 399 -18 530 -18 l 399 -18 q 221 13 299 -18 q 98 102 142 44 q 53 244 53 161 l 53 244 q 54 276 53 262 q 58 305 55 290 l 58 305 l 266 298 l 266 273 q 298 193 266 219 q 382 167 331 167 l 382 167 q 510 224 459 167 q 561 407 561 282 l 561 407 q 560 432 561 420 l 560 432 q 462 363 521 387 q 337 340 404 340 l 337 340 q 180 376 248 340 q 75 477 113 412 q 38 629 38 542 l 38 629 q 88 788 38 720 q 225 893 138 856 q 422 930 312 930 z m 433 745 l 433 745 q 354 713 385 745 q 323 629 323 681 l 323 629 q 354 546 323 577 q 433 514 385 514 l 433 514 q 511 546 479 514 q 543 629 543 577 l 543 629 q 512 713 543 681 q 433 745 481 745 z "}," ":{"ha":286,"x_min":null,"x_max":null,"o":""},"!":{"ha":555,"x_min":71,"x_max":484,"o":"m 407 371 l 148 370 l 71 808 l 71 1080 l 484 1080 l 484 808 l 407 371 z m 277 -18 l 277 -18 q 139 28 191 -18 q 87 155 87 75 l 87 155 q 139 279 87 233 q 277 324 191 324 l 277 324 q 416 279 364 324 q 468 155 468 233 l 468 155 q 416 28 468 75 q 277 -18 363 -18 z "},"\"":{"ha":770,"x_min":34,"x_max":736,"o":"m 675 571 l 465 571 l 404 1080 l 736 1080 l 675 571 z m 305 571 l 95 571 l 34 1080 l 366 1080 l 305 571 z "},"#":{"ha":918,"x_min":20,"x_max":898,"o":"m 284 0 l 64 0 l 113 214 l 20 214 l 63 417 l 159 417 l 215 663 l 123 663 l 165 865 l 261 865 l 310 1080 l 530 1080 l 481 865 l 585 865 l 634 1080 l 854 1080 l 805 865 l 898 865 l 855 663 l 759 663 l 703 417 l 795 417 l 753 214 l 657 214 l 608 0 l 389 0 l 437 214 l 333 214 l 284 0 z m 435 663 l 379 417 l 484 417 l 539 663 l 435 663 z "},"%":{"ha":1252,"x_min":29,"x_max":1223,"o":"m 287 412 l 287 412 q 150 446 208 412 q 61 537 92 479 q 29 671 29 596 l 29 671 q 61 805 29 746 q 150 897 92 863 q 287 930 208 930 l 287 930 q 424 897 366 930 q 513 805 481 863 q 545 671 545 746 l 545 671 q 513 537 545 596 q 424 446 481 479 q 287 412 366 412 z m 458 0 l 241 0 l 793 917 l 1010 917 l 458 0 z m 287 556 l 287 556 q 327 586 312 556 q 341 672 341 616 l 341 672 q 327 757 341 728 q 287 787 312 787 l 287 787 q 247 757 262 787 q 233 672 233 728 l 233 672 q 247 586 233 616 q 287 556 262 556 z m 965 -18 l 965 -18 q 828 16 886 -18 q 739 107 770 49 q 707 241 707 165 l 707 241 q 739 375 707 316 q 828 467 770 433 q 965 500 886 500 l 965 500 q 1102 467 1044 500 q 1191 375 1160 433 q 1223 241 1223 316 l 1223 241 q 1191 107 1223 165 q 1102 16 1160 49 q 965 -18 1044 -18 z m 965 126 l 965 126 q 1005 156 990 126 q 1019 242 1019 186 l 1019 242 q 1005 327 1019 298 q 965 357 990 357 l 965 357 q 925 327 940 357 q 911 242 911 298 l 911 242 q 925 156 911 186 q 965 126 940 126 z "},"&":{"ha":1177,"x_min":36,"x_max":1133,"o":"m 350 -18 l 350 -18 q 121 55 206 -18 q 36 254 36 129 l 36 254 q 264 546 36 448 l 264 546 q 202 648 222 597 q 182 759 182 699 l 182 759 q 222 917 182 850 q 336 1021 262 984 q 509 1057 410 1057 l 509 1057 q 720 989 642 1057 q 798 806 798 922 l 798 806 q 665 570 798 654 l 665 570 l 791 430 l 875 510 l 827 510 l 827 727 l 1133 727 l 1133 510 l 1088 510 l 892 317 l 983 217 l 1133 217 l 1133 0 l 751 0 l 666 96 q 519 9 597 37 q 350 -18 441 -18 z m 544 704 l 544 704 l 562 684 q 610 728 595 704 q 624 785 624 752 l 624 785 q 604 840 624 819 q 553 861 584 861 l 553 861 q 508 843 526 861 q 490 798 490 825 l 490 798 q 501 758 490 776 q 544 704 512 739 z m 360 304 l 360 304 q 392 228 360 258 q 471 198 424 198 l 471 198 q 555 220 515 198 l 555 220 l 394 399 q 360 304 360 361 z "},"'":{"ha":400,"x_min":34,"x_max":366,"o":"m 305 571 l 95 571 l 34 1080 l 366 1080 l 305 571 z "},"(":{"ha":701,"x_min":114,"x_max":667,"o":"m 667 -66 l 667 -277 q 257 -90 400 -266 q 114 405 114 86 l 114 405 q 257 900 114 724 q 667 1086 399 1076 l 667 1086 l 667 876 q 559 812 600 863 q 499 662 518 761 q 480 405 480 564 l 480 405 q 499 148 480 246 q 559 -2 518 49 q 667 -66 600 -52 l 667 -66 z "},")":{"ha":701,"x_min":34,"x_max":587,"o":"m 34 -277 l 34 -277 l 34 -66 q 142 -2 101 -52 q 202 148 183 49 q 221 405 221 246 l 221 405 q 202 662 221 564 q 142 812 183 761 q 34 876 101 863 l 34 876 l 34 1086 q 445 900 302 1076 q 587 405 587 724 l 587 405 q 445 -90 587 86 q 34 -277 302 -266 z "},"*":{"ha":718,"x_min":47,"x_max":670,"o":"m 359 416 l 359 416 q 300 444 323 416 q 276 512 276 471 l 276 512 q 279 555 276 532 q 292 606 281 578 l 292 606 l 328 699 l 266 618 q 200 558 236 578 q 134 538 163 538 l 134 538 q 73 564 99 538 q 47 623 47 589 l 47 623 q 72 684 47 659 q 135 725 97 709 q 215 751 174 741 l 215 751 l 263 762 l 215 773 q 135 799 174 783 q 72 840 97 815 q 47 901 47 865 l 47 901 q 73 960 47 935 q 134 985 99 985 l 134 985 q 200 966 163 985 q 266 906 236 946 l 266 906 l 328 825 l 292 918 q 279 969 281 945 q 276 1012 276 992 l 276 1012 q 300 1080 276 1053 q 359 1107 323 1107 l 359 1107 q 418 1080 394 1107 q 441 1012 441 1053 l 441 1012 q 439 969 441 992 q 425 918 436 945 l 425 918 l 390 825 l 452 906 q 518 966 481 946 q 584 985 555 985 l 584 985 q 644 960 618 985 q 670 901 670 935 l 670 901 q 646 840 670 865 q 583 799 621 815 q 503 773 545 783 l 503 773 l 453 762 l 503 751 q 583 726 545 742 q 646 684 621 709 q 670 623 670 659 l 670 623 q 644 564 670 589 q 584 538 618 538 l 584 538 q 518 558 555 538 q 452 618 481 578 l 452 618 l 390 699 l 425 606 q 439 555 436 578 q 441 512 441 532 l 441 512 q 418 444 441 471 q 359 416 394 416 z "},"+":{"ha":814,"x_min":68,"x_max":746,"o":"m 287 248 l 68 248 l 68 479 l 287 479 l 287 703 l 527 703 l 527 479 l 746 479 l 746 248 l 527 248 l 527 24 l 287 24 l 287 248 z "},",":{"ha":422,"x_min":20,"x_max":401,"o":"m 39 -297 l 39 -297 l 39 -141 q 142 -110 108 -140 q 180 -16 176 -80 l 180 -16 q 63 39 106 -6 q 20 155 20 84 l 20 155 q 70 277 20 231 q 197 324 119 324 l 197 324 q 349 259 297 324 q 401 70 401 195 l 401 70 q 307 -199 401 -101 q 39 -297 213 -297 z "},"-":{"ha":559,"x_min":68,"x_max":491,"o":"m 491 265 l 68 265 l 68 469 l 491 469 l 491 265 z "},".":{"ha":422,"x_min":20,"x_max":401,"o":"m 211 -18 l 211 -18 q 73 28 125 -18 q 20 155 20 75 l 20 155 q 73 279 20 233 q 211 324 125 324 l 211 324 q 350 279 298 324 q 401 155 401 233 l 401 155 q 349 28 401 75 q 211 -18 297 -18 z "},"/":{"ha":591,"x_min":14,"x_max":577,"o":"m 346 0 l 14 0 l 245 1080 l 577 1080 l 346 0 z "},":":{"ha":422,"x_min":20,"x_max":401,"o":"m 211 404 l 211 404 q 73 451 125 404 q 20 577 20 498 l 20 577 q 73 701 20 656 q 211 747 125 747 l 211 747 q 350 701 298 747 q 401 577 401 656 l 401 577 q 349 451 401 498 q 211 404 297 404 z m 211 -18 l 211 -18 q 73 28 125 -18 q 20 155 20 75 l 20 155 q 73 279 20 233 q 211 324 125 324 l 211 324 q 350 279 298 324 q 401 155 401 233 l 401 155 q 349 28 401 75 q 211 -18 297 -18 z "},";":{"ha":422,"x_min":20,"x_max":401,"o":"m 211 404 l 211 404 q 73 451 125 404 q 20 577 20 498 l 20 577 q 73 701 20 656 q 211 747 125 747 l 211 747 q 350 701 298 747 q 401 577 401 656 l 401 577 q 349 451 401 498 q 211 404 297 404 z m 39 -297 l 39 -297 l 39 -141 q 142 -110 108 -140 q 180 -16 176 -80 l 180 -16 q 63 39 106 -6 q 20 155 20 84 l 20 155 q 70 277 20 231 q 197 324 119 324 l 197 324 q 349 259 297 324 q 401 70 401 195 l 401 70 q 307 -199 401 -101 q 39 -297 213 -297 z "},"?":{"ha":860,"x_min":20,"x_max":840,"o":"m 518 372 l 259 372 l 259 565 q 439 669 386 608 q 492 800 492 730 l 492 800 q 472 872 492 848 q 418 896 452 896 l 418 896 q 339 786 339 896 l 339 786 l 20 786 q 67 941 20 870 q 204 1056 113 1013 q 429 1099 296 1099 l 429 1099 q 650 1059 558 1099 q 790 948 741 1019 q 840 786 840 877 l 840 786 q 764 598 840 677 q 518 465 688 520 l 518 465 l 518 372 z m 389 -18 l 389 -18 q 250 29 302 -18 q 198 155 198 76 l 198 155 q 250 278 198 233 q 389 324 301 324 l 389 324 q 528 278 476 324 q 579 155 579 233 l 579 155 q 527 29 579 76 q 389 -18 475 -18 z "},"@":{"ha":1582,"x_min":50,"x_max":1533,"o":"m 810 -283 l 810 -283 q 407 -202 577 -283 q 143 25 236 -121 q 50 368 50 172 l 50 368 q 104 650 50 524 q 260 868 159 777 q 502 1009 361 960 q 814 1058 642 1058 l 814 1058 q 1108 1017 976 1058 q 1335 901 1240 977 q 1481 720 1430 825 q 1533 485 1533 614 l 1533 485 q 1482 257 1533 353 q 1339 110 1431 161 q 1122 58 1246 58 l 1122 58 q 878 162 939 58 l 878 162 q 655 58 792 58 l 655 58 q 462 137 534 58 q 389 346 389 215 l 389 346 q 437 545 389 457 q 569 684 486 633 q 758 735 653 735 l 758 735 q 860 721 806 735 q 956 680 913 706 l 956 680 l 986 724 l 1217 724 l 1150 357 q 1222 237 1128 237 l 1222 237 q 1289 269 1259 237 q 1338 357 1320 301 q 1356 485 1356 413 l 1356 485 q 1215 794 1356 686 q 814 903 1074 903 l 814 903 q 510 838 638 903 q 311 653 381 773 q 241 368 241 533 l 241 368 q 311 106 241 217 q 511 -65 380 -5 q 823 -125 641 -125 l 823 -125 q 992 -110 907 -125 q 1135 -70 1078 -95 l 1135 -70 l 1154 -78 l 1154 -230 q 810 -283 997 -283 z m 680 349 l 680 349 q 758 241 680 241 l 758 241 q 850 308 821 241 l 850 308 l 890 536 q 818 553 853 553 l 818 553 q 718 497 755 553 q 680 349 680 441 z "}}}
